<svg id="Ebene_1" data-name="Ebene 1" xmlns="http://www.w3.org/2000/svg" viewBox="0 0 512 512"><defs><style>.cls-2{fill:none;stroke:#61ff7e;stroke-width:5.95px}.cls-2,.cls-9{stroke-linecap:round;stroke-linejoin:round}.cls-3{fill:#61ff7e}.cls-9{stroke:#505050;stroke-width:2.98px;fill:#faffff}</style></defs><g opacity=".4"><path class="cls-2" d="M406.12 115.4L387.4 97.94m.52 15.07l17.46-18.72m-57.14 31.78a9.07 9.07 0 1 1 8.75-9.38 9.06 9.06 0 0 1-8.75 9.38zm20.67-40.26l-15.83-14.3m.76 15.06l14.31-15.82m52.39 231.66l-15.83-14.31m.76 15.07l14.31-15.83"/><path class="cls-3" d="M423.21 164a12.27 12.27 0 1 1 11.84-12.69A12.27 12.27 0 0 1 423.21 164z"/><path class="cls-2" d="M379.19 247.77l-22.97.8m10.04 13.06l-.74-21.05m36.15-33.07l-18.72-17.46m.53 15.08l17.45-18.72m-57.13 31.77a9.07 9.07 0 1 1 8.74-9.38 9.07 9.07 0 0 1-8.74 9.38zM379.31 162l-15.82-14.3m.76 15.06l14.3-15.82"/><path class="cls-3" d="M418.77 256.12a12.27 12.27 0 1 1 11.83-12.69 12.28 12.28 0 0 1-11.83 12.69z"/><path class="cls-2" d="M326.04 316.68l-22.97.8m10.04 13.06l-.74-21.05m36.15-33.07l-18.72-17.46m.53 15.08l17.45-18.72"/><path class="cls-3" d="M290.65 287.09a9.07 9.07 0 1 1 8.74-9.38 9.08 9.08 0 0 1-8.74 9.38z"/><path class="cls-2" d="M311.32 246.83l-15.83-14.3m.76 15.06l14.31-15.82M365.62 325a12.27 12.27 0 1 1 11.83-12.69A12.28 12.28 0 0 1 365.62 325zm-83.13-158.15l-22.96.81m10.03 13.05l-.74-21.04m36.15-33.07l-18.72-17.46m.53 15.07l17.45-18.72"/><path class="cls-3" d="M247.1 137.26a9.07 9.07 0 1 1 8.74-9.37 9.07 9.07 0 0 1-8.74 9.37zm59.66-55.99a9.07 9.07 0 1 1 8.74-9.38 9.07 9.07 0 0 1-8.74 9.38z"/><path class="cls-2" d="M267.77 97.01L251.94 82.7m.76 15.07l14.31-15.83"/><path class="cls-3" d="M322.07 175.2a12.27 12.27 0 1 1 11.83-12.68 12.27 12.27 0 0 1-11.83 12.68z"/><path class="cls-2" d="M194.4 168.01l-22.96.81m10.04 13.06l-.74-21.05m36.15-33.07l-18.72-17.46m.52 15.07l17.46-18.72M159 138.43a9.07 9.07 0 1 1 8.75-9.38 9.06 9.06 0 0 1-8.75 9.38zm20.68-40.26l-15.83-14.3m.76 15.06l14.31-15.82M234 176.36a12.26 12.26 0 1 1 11.83-12.68A12.27 12.27 0 0 1 234 176.36zM217.81 66a12.26 12.26 0 1 1 11.83-12.68A12.26 12.26 0 0 1 217.81 66zm-96.09 160.11l-22.97.8m10.04 13.06l-.74-21.04m36.15-33.08l-18.72-17.45m.53 15.07l17.45-18.72m-57.13 31.77a9.07 9.07 0 1 1 8.74-9.38 9.06 9.06 0 0 1-8.74 9.38zM107 156.27l-15.83-14.31m.76 15.07l14.31-15.83"/><path class="cls-3" d="M161.3 234.46a12.27 12.27 0 1 1 11.83-12.69 12.27 12.27 0 0 1-11.83 12.69zm-8.92 97.35a12.26 12.26 0 1 1 11.83-12.68 12.27 12.27 0 0 1-11.83 12.68zm-35.6-225.18a12.27 12.27 0 1 1 11.84-12.69 12.26 12.26 0 0 1-11.84 12.69z"/><path class="cls-2" d="M158.1 280.4l-22.96.8m10.03 13.06l-.74-21.05m64.48 10l-18.72-17.45m.52 15.07l17.46-18.72"/><path class="cls-3" d="M199.94 322.83a9.07 9.07 0 1 1 8.75-9.38 9.08 9.08 0 0 1-8.75 9.38z"/><path class="cls-2" d="M116.81 272.79l-15.82-14.31m.76 15.07l14.3-15.83m96.71-30.8a12.27 12.27 0 1 1 11.83-12.69 12.26 12.26 0 0 1-11.83 12.69zm31.73 113.68l-22.96.8m10.04 13.06l-.74-21.05m36.15-33.07l-18.72-17.46m.53 15.08l17.45-18.72m12.5-58.79a9.07 9.07 0 1 1 8.75-9.38 9.06 9.06 0 0 1-8.75 9.38zm-23.18 20.67l-15.83-14.31m.76 15.07l14.31-15.83M284.08 349a12.27 12.27 0 1 1 11.83-12.69A12.27 12.27 0 0 1 284.08 349z"/></g><path d="M391.46 375.65c0 7.4-4.68 14.65-12 14.65H145.31c-7.32 0-14.51-7.25-14.51-14.65V259.57c0-7.39 7.19-12.14 14.51-12.14h234.15c7.32 0 12 4.75 12 12.14z" stroke="#505050" stroke-width="2.98" fill="#c8c8c8" stroke-linecap="round" stroke-linejoin="round"/><path fill="#787878" stroke="#505050" stroke-width="2.98" stroke-linecap="round" stroke-linejoin="round" d="M160.88 337.66h200.51v52.63H160.88z"/><path d="M148.34 247.43v46.41c0 12.48 8 23.77 16.29 23.77h193c8.3 0 13.78-11.29 13.78-23.77v-46.41z" stroke="#505050" stroke-width="2.98" fill="#61ff7e" stroke-linecap="round" stroke-linejoin="round"/><path d="M349.27 299a6.48 6.48 0 1 1-6.47-6.47 6.48 6.48 0 0 1 6.47 6.47z" fill="#e70000" stroke="#505050" stroke-width="2.98" stroke-linecap="round" stroke-linejoin="round"/><path d="M324.21 299a6.48 6.48 0 1 1-6.48-6.47 6.48 6.48 0 0 1 6.48 6.47z" fill="#04c956" stroke="#505050" stroke-width="2.98" stroke-linecap="round" stroke-linejoin="round"/><path class="cls-9" d="M188.35 142.82s1.91 74.92 2.06 133.69c0 0 145.1 1.83 151.14 1.83-.76-6.2.16-57.62.06-95.37-15-9.13-43.2-39.38-47.37-41.58-45.43-.01-105.89 1.43-105.89 1.43z"/><path d="M294.08 183.72s-1.63-39.55.35-42.07c6.83 5.13 45.11 39.35 47.18 41.32-7.89 1.65-47.53.75-47.53.75z" fill="#f0f5f5" stroke="#505050" stroke-width="2.98" stroke-linecap="round" stroke-linejoin="round"/><path d="M294.65 212.47a5.1 5.1 0 1 1-5.1-5.09 5.1 5.1 0 0 1 5.1 5.09zm-48.89 0a5.1 5.1 0 1 1-5.1-5.09 5.1 5.1 0 0 1 5.1 5.09zm7.24 24.41a.77.77 0 0 0 0 .21c0 4.74 5.51 8.52 12.32 8.52s12.32-3.74 12.32-8.49a1.17 1.17 0 0 0 0-.24z"/><path class="cls-9" d="M342.13 362.73H189.58c.41 32.9.77 71 .83 105.2 0 0 145.1 2.57 151.14 2.57-.55-6.41.19-59.19.58-107.77z"/><path d="M211 395.31h50.13M211 410.35h107.78M211 425.39h107.78M211 440.42h107.78" stroke="#505050" stroke-width="2.98" stroke-linecap="round" stroke-linejoin="round" fill="none"/></svg>