<svg id="Ebene_1" data-name="Ebene 1" xmlns="http://www.w3.org/2000/svg" viewBox="0 0 512 512"><defs><style>.cls-2{fill:none;stroke:#61ff7e;stroke-width:5.86px;stroke-linecap:round;stroke-linejoin:round}.cls-3{fill:#61ff7e}</style></defs><g opacity=".4"><path class="cls-2" d="M403.78 120.75l-18.43-17.19m.52 14.84l17.18-18.43m-56.24 31.28a8.93 8.93 0 1 1 8.61-9.23 8.92 8.92 0 0 1-8.61 9.23zm20.34-39.63l-15.58-14.08m.75 14.83l14.08-15.58m51.58 228.05l-15.58-14.08m.75 14.83l14.08-15.58"/><path class="cls-3" d="M420.61 168.6a12.08 12.08 0 1 1 11.65-12.49 12.08 12.08 0 0 1-11.65 12.49z"/><path class="cls-2" d="M377.27 251.06l-22.61.79m9.88 12.85l-.72-20.72m35.58-32.55l-18.43-17.19m.52 14.84l17.19-18.43m-56.25 31.28a8.93 8.93 0 1 1 8.57-9.23 8.93 8.93 0 0 1-8.57 9.23zm34.96-55.3l-15.58-14.09m.75 14.84l14.08-15.58"/><path class="cls-3" d="M416.24 259.28a12.08 12.08 0 1 1 11.64-12.49 12.07 12.07 0 0 1-11.64 12.49z"/><path class="cls-2" d="M324.95 318.89l-22.61.79m9.88 12.86l-.72-20.72m35.58-32.56l-18.43-17.18m.52 14.84l17.18-18.43"/><path class="cls-3" d="M290.11 289.77a8.93 8.93 0 1 1 8.61-9.24 8.93 8.93 0 0 1-8.61 9.24z"/><path class="cls-2" d="M310.45 250.14l-15.58-14.09m.75 14.84l14.09-15.58m54.2 91.8a12.07 12.07 0 1 1 11.65-12.49 12.08 12.08 0 0 1-11.65 12.49zM282.07 171.4l-22.6.79m9.88 12.86l-.72-20.72m35.58-32.56l-18.43-17.18m.52 14.83L303.48 111"/><path class="cls-3" d="M247.24 142.27a8.93 8.93 0 1 1 8.61-9.23 8.91 8.91 0 0 1-8.61 9.23zM306 87.15a8.93 8.93 0 1 1 8.6-9.23 8.94 8.94 0 0 1-8.6 9.23z"/><path class="cls-2" d="M267.58 102.65L252 88.56m.75 14.83l14.08-15.58"/><path class="cls-3" d="M321 179.62a12.08 12.08 0 1 1 11.65-12.49A12.08 12.08 0 0 1 321 179.62z"/><path class="cls-2" d="M195.36 172.54l-22.6.79m9.88 12.86l-.73-20.72m35.58-32.56l-18.42-17.18m.51 14.84l17.19-18.43m-56.25 31.28a8.93 8.93 0 1 1 8.61-9.24 8.93 8.93 0 0 1-8.61 9.24zm20.35-39.63l-15.58-14.08m.75 14.83l14.08-15.58m54.21 91.8A12.07 12.07 0 1 1 246 168.28a12.06 12.06 0 0 1-11.67 12.48zM218.4 72.14a12.07 12.07 0 1 1 11.65-12.49 12.08 12.08 0 0 1-11.65 12.49zm-94.59 157.6l-22.61.79m9.88 12.85l-.72-20.72m35.58-32.55l-18.43-17.19m.52 14.84l17.19-18.43M89 200.61a8.93 8.93 0 1 1 8.61-9.23 8.93 8.93 0 0 1-8.61 9.23zm20.32-39.63L93.74 146.9m.74 14.83l14.09-15.58"/><path class="cls-3" d="M162.77 238a12.08 12.08 0 1 1 11.65-12.49A12.07 12.07 0 0 1 162.77 238zM154 333.79a12.07 12.07 0 1 1 11.65-12.49A12.08 12.08 0 0 1 154 333.79zm-35-221.68a12.07 12.07 0 1 1 11.6-12.48 12.08 12.08 0 0 1-11.6 12.48z"/><path class="cls-2" d="M159.62 283.18l-22.6.79m9.88 12.85l-.73-20.72m63.47 9.85l-18.43-17.19m.52 14.84l17.18-18.43"/><path class="cls-3" d="M200.81 325a8.93 8.93 0 1 1 8.61-9.24 8.93 8.93 0 0 1-8.61 9.24z"/><path class="cls-2" d="M118.98 275.69L103.4 261.6m.75 14.83l14.08-15.58m95.21-30.32A12.08 12.08 0 1 1 225.08 218a12.07 12.07 0 0 1-11.64 12.53zm31.23 111.91l-22.6.79m9.88 12.86l-.73-20.72m35.59-32.56l-18.43-17.18m.52 14.84l17.18-18.43m12.31-57.87a8.93 8.93 0 1 1 8.61-9.24 8.93 8.93 0 0 1-8.61 9.24zm-22.82 20.34l-15.58-14.08m.74 14.83l14.09-15.58m28.82 120.98a12.07 12.07 0 1 1 11.65-12.49 12.08 12.08 0 0 1-11.65 12.49z"/></g><path d="M151.28 143.61s2.76 177.12 3 316.06c0 0 209.87 4.33 218.62 4.33-1.1-14.66 1.28-173.6 1.14-262.85-21.72-21.59-63.55-55.72-69.58-60.92-65.74-.02-153.18 3.38-153.18 3.38z" stroke="#505050" stroke-width="2.93" fill="#faffff" stroke-linecap="round" stroke-linejoin="round"/><path d="M304.2 201.46s-2.35-57.21.51-60.86c9.88 7.4 65.29 56.92 68.29 59.77-11.46 2.38-68.8 1.09-68.8 1.09z" fill="#f0f5f5" stroke="#505050" stroke-width="2.93" stroke-linecap="round" stroke-linejoin="round"/><path d="M185.16 337.65h70.48m-70.48 24.76h154.28m-154.28 24.76h154.28m-154.28 24.76h154.28" stroke="#505050" stroke-width="2.93" stroke-linecap="round" stroke-linejoin="round" fill="none"/><path d="M305 243.05a7.37 7.37 0 1 1-7.37-7.37 7.37 7.37 0 0 1 7.37 7.37zm-70.69 0a7.37 7.37 0 1 1-7.37-7.37 7.37 7.37 0 0 1 7.37 7.37zm10.53 35.3a1.17 1.17 0 0 0 0 .3c0 6.86 8 12.33 17.83 12.33s17.83-5.41 17.83-12.28a1.81 1.81 0 0 0 0-.35z"/></svg>