<svg id="Logo_Mobile" xmlns="http://www.w3.org/2000/svg" viewBox="0 0 530 800.57"><defs><style>.cls-1{fill:none;stroke:#04c956;stroke-linecap:round;stroke-miterlimit:10;stroke-width:20px}</style><linearGradient id="Unbenannter_Verlauf_3" x1="-220.73" y1="626.03" x2="1264.64" y2="-126.4" gradientUnits="userSpaceOnUse"><stop offset="0" stop-color="#04c956"/><stop offset="1" stop-color="#61ff7e"/></linearGradient></defs><g id="Symbol_Stroke"><path id="Symbol_Shape" class="cls-1" d="M264.94 522.29v-.12a248.79 248.79 0 0 0 128.38-35.43q10.19-6.11 19.71-13.12a249 249 0 0 0 53.41-53.38q7-9.5 13.13-19.67a250 250 0 0 0-.82-258 237.65 237.65 0 0 0-14.16-20.83 250.06 250.06 0 0 0-327.33-64.38 242.5 242.5 0 0 0-22.1 14.81 248.89 248.89 0 0 0-50.27 50.26 244.27 244.27 0 0 0-14.81 22.08A248.63 248.63 0 0 0 15 272.23v340l166 165.31h57.1a27.18 27.18 0 0 0 26.84-22.66V522.36"/><path id="Symbol_Hole" class="cls-1" d="M264.66 332a59.91 59.91 0 1 1 .28 0"/></g><g id="Symbol_Fill"><path d="M478.75 143a236.32 236.32 0 0 0-14.16-20.84 250.06 250.06 0 0 0-327.33-64.43 242.5 242.5 0 0 0-22.1 14.81 249.15 249.15 0 0 0-50.27 50.26 244.27 244.27 0 0 0-14.81 22.08A248.66 248.66 0 0 0 15 272.6v340l166 165.32h57.1a27.19 27.19 0 0 0 26.84-22.67V522.54a248.79 248.79 0 0 0 128.38-35.43Q403.51 481 413 474a249 249 0 0 0 53.41-53.38q7-9.5 13.13-19.67a250 250 0 0 0-.82-258zM264.94 332.37a59.77 59.77 0 1 1 59.77-59.77 59.77 59.77 0 0 1-59.77 59.77z" fill="url(#Unbenannter_Verlauf_3)" id="Symbol_Shape-2" data-name="Symbol_Shape"/><path id="Symbol_Edge" d="M15 612.19h138.55a27.21 27.21 0 0 1 27.17 27.23l.29 138.5z" fill="#04a547"/></g></svg>