<svg xmlns="http://www.w3.org/2000/svg" xmlns:xlink="http://www.w3.org/1999/xlink" viewBox="0 0 1297 800.57"><defs><style>.cls-1{fill:none;stroke:#04c956;stroke-linecap:round;stroke-miterlimit:10;stroke-width:20px}</style><linearGradient id="Unbenannter_Verlauf_3" x1="-221.38" y1="626.03" x2="1263.98" y2="-126.4" gradientUnits="userSpaceOnUse"><stop offset="0" stop-color="#04c956"/><stop offset="1" stop-color="#61ff7e"/></linearGradient><linearGradient id="Unbenannter_Verlauf_3-2" x1="-98.34" y1="868.93" x2="1387.03" y2="116.5" xlink:href="#Unbenannter_Verlauf_3"/><linearGradient id="Unbenannter_Verlauf_3-3" x1="-68.45" y1="927.94" x2="1416.92" y2="175.51" xlink:href="#Unbenannter_Verlauf_3"/><linearGradient id="Unbenannter_Verlauf_3-4" x1="-54.62" y1="955.23" x2="1430.74" y2="202.8" xlink:href="#Unbenannter_Verlauf_3"/><linearGradient id="Unbenannter_Verlauf_3-5" x1="-28.13" y1="1007.52" x2="1457.23" y2="255.09" xlink:href="#Unbenannter_Verlauf_3"/><linearGradient id="Unbenannter_Verlauf_3-6" x1="-6.59" y1="1050.05" x2="1478.77" y2="297.62" xlink:href="#Unbenannter_Verlauf_3"/><linearGradient id="Unbenannter_Verlauf_3-7" x1="20.16" y1="1102.85" x2="1505.52" y2="350.42" xlink:href="#Unbenannter_Verlauf_3"/><linearGradient id="Unbenannter_Verlauf_3-8" x1="44.09" y1="1150.09" x2="1529.45" y2="397.66" xlink:href="#Unbenannter_Verlauf_3"/><linearGradient id="Unbenannter_Verlauf_3-9" x1="68.94" y1="1199.15" x2="1554.3" y2="446.72" xlink:href="#Unbenannter_Verlauf_3"/><linearGradient id="Unbenannter_Verlauf_3-10" x1="83.43" y1="1227.76" x2="1568.8" y2="475.34" xlink:href="#Unbenannter_Verlauf_3"/></defs><g id="Logo_Desktop"><g id="Symbol_Stroke"><path id="Symbol_Shape" class="cls-1" d="M264.94 522.29v-.12a248.79 248.79 0 0 0 128.38-35.43q10.19-6.11 19.71-13.12a249 249 0 0 0 53.41-53.38q7-9.5 13.13-19.67a250 250 0 0 0-.82-258 237.65 237.65 0 0 0-14.16-20.83 250.06 250.06 0 0 0-327.33-64.38 242.5 242.5 0 0 0-22.1 14.81 248.89 248.89 0 0 0-50.27 50.26 244.27 244.27 0 0 0-14.81 22.08A248.63 248.63 0 0 0 15 272.23v340l166 165.31h57.1a27.18 27.18 0 0 0 26.84-22.66V522.36"/><path id="Symbol_Hole" class="cls-1" d="M264.66 332a59.91 59.91 0 1 1 .28 0"/></g><g id="Symbol_Fill"><path d="M478.1 143a236.32 236.32 0 0 0-14.16-20.84A250.07 250.07 0 0 0 136.6 57.73a243.74 243.74 0 0 0-22.09 14.81 249.15 249.15 0 0 0-50.27 50.26 242.19 242.19 0 0 0-14.81 22.08A248.66 248.66 0 0 0 14.35 272.6v340l166 165.35h57.09a27.19 27.19 0 0 0 26.84-22.67V522.54a248.79 248.79 0 0 0 128.38-35.43Q402.85 481 412.37 474a248.77 248.77 0 0 0 53.42-53.38q7-9.5 13.12-19.67a250 250 0 0 0-.81-258zM264.29 332.37a59.77 59.77 0 1 1 59.77-59.77 59.77 59.77 0 0 1-59.77 59.77z" fill="url(#Unbenannter_Verlauf_3)"/><path id="Symbol_Edge" d="M14.35 612.19H152.9a27.21 27.21 0 0 1 27.17 27.23l.29 138.5z" fill="#04a547"/></g><g id="Symbol_Font"><path d="M322.89 600c0-5.77 3-8.82 8.81-8.82h38.79c22.27 0 37.33 16.35 37.33 39.43s-15.06 39.74-37.33 39.74h-19.56v26.61c0 5.77-3 8.81-8.81 8.81H331.7c-5.77 0-8.81-3-8.81-8.81zm41.82 46.31c9.78 0 14.59-6.57 14.59-15.7s-4.81-15.39-14.1-15.39h-14.27v31.09z" fill="url(#Unbenannter_Verlauf_3-2)"/><path d="M448.36 598.37c1.6-5 4.81-7.22 9.94-7.22h14.42c5.13 0 8.33 2.25 9.93 7.22l33.18 97.28c2.08 6.09-.8 10.09-7.21 10.09H498c-5.13 0-8.33-2.4-9.94-7.37l-4.8-16.67h-35.7l-4.81 16.67c-1.44 5-4.65 7.37-9.78 7.37H422.4c-6.41 0-9.3-4-7.22-10.09zm28.37 60.89L470.32 637c-2.09-7.21-4.65-19.71-4.65-19.71h-.32s-2.57 12.5-4.65 19.71l-6.57 22.27z" fill="url(#Unbenannter_Verlauf_3-3)"/><path d="M537 600c0-5.77 3-8.82 8.82-8.82h38.78c22.28 0 37.34 16.35 37.34 39.43s-15.06 39.74-37.34 39.74H565v26.61c0 5.77-3 8.81-8.82 8.81h-10.39c-5.77 0-8.82-3-8.82-8.81zm41.83 46.31c9.78 0 14.58-6.57 14.58-15.7s-4.8-15.39-14.1-15.39H565v31.09z" fill="url(#Unbenannter_Verlauf_3-4)"/><path d="M643.69 600c0-5.77 3-8.82 8.82-8.82h54.17c5.77 0 8.81 3.05 8.81 8.82v6.41c0 5.77-3 8.81-8.81 8.81h-34.94V636h26.12c5.77 0 8.82 3 8.82 8.81v6.41c0 5.77-3 8.82-8.82 8.82h-26.12v21.66h37.18c5.77 0 8.82 3 8.82 8.82v6.41c0 5.77-3 8.81-8.82 8.81h-56.41c-5.77 0-8.82-3-8.82-8.81z" fill="url(#Unbenannter_Verlauf_3-5)"/><path d="M741.44 600c0-5.77 3-8.82 8.82-8.82h31.09c11.7 0 17.31.8 22.27 2.73 13 5 21.16 16.66 21.16 33.33 0 12.18-5.77 25.48-17.15 31.25v.32a67.18 67.18 0 0 1 4.33 6.9l16.34 29.48c3.53 6.09.8 10.58-6.09 10.58H810c-4.8 0-8-1.92-10.41-6.25l-17-32.37h-13.1v29.81c0 5.77-3 8.81-8.82 8.81h-10.41c-5.77 0-8.82-3-8.82-8.81zm40.23 43.11c9 0 14.58-5 14.58-14.1 0-5.77-1.44-10.1-6.73-12.18-2.56-1.13-5.93-1.61-10.58-1.61h-9.45v27.89z" fill="url(#Unbenannter_Verlauf_3-6)"/><path d="M905.22 589.23c18.27 0 32.53 6.73 37.18 10.1 4.81 3.52 5.29 7.21 2.24 12.18l-4.16 6.57c-3.05 4.81-6.89 5.13-12.18 2.4s-11.38-5.61-21.32-5.61c-22.92 0-33 15.39-33 32.7C874 668.72 889 682 906.5 682c16.35 0 23.56-9.29 23.56-9.29v-7.86h-7.37c-5.77 0-8.82-3-8.82-8.81v-6.25c0-5.77 3-8.81 8.82-8.81h23.39c5.78 0 8.82 3 8.82 8.81v47.12c0 5.77-3 8.81-8.82 8.81h-5.28c-5.77 0-8.82-3-8.82-6.89v-.32a7.26 7.26 0 0 1 .16-1.6h-.32s-10.09 10.73-30.45 10.73c-29.49 0-56.41-22.43-56.41-58.49.04-34.92 25.16-59.92 60.26-59.92z" fill="url(#Unbenannter_Verlauf_3-7)"/><path d="M1034.53 589.23c35.58 0 59.94 25.64 59.94 58.5 0 33.65-24.36 59.93-59.94 59.93s-59.94-26.28-59.94-59.93c0-32.86 24.41-58.5 59.94-58.5zm0 92.79c18.11 0 30.93-14.74 30.93-34.29 0-18.75-12.82-32.86-30.93-32.86s-30.93 14.13-30.93 32.86c0 19.55 12.82 34.27 30.93 34.27z" fill="url(#Unbenannter_Verlauf_3-8)"/><path d="M1118.65 600c0-5.77 3-8.82 8.82-8.82h10.42c5.76 0 8.81 3.05 8.81 8.82v81.7h38c5.77 0 8.82 3 8.82 8.82v6.41c0 5.77-3 8.81-8.82 8.81h-57.21c-5.77 0-8.82-3-8.82-8.81z" fill="url(#Unbenannter_Verlauf_3-9)"/><path d="M1213 600c0-5.77 3-8.82 8.81-8.82h52.57c5.77 0 8.81 3.05 8.81 8.82v6.41c0 5.77-3 8.81-8.81 8.81h-33.34v24h26.13c5.77 0 8.81 3 8.81 8.82v6.41c0 5.77-3 8.81-8.81 8.81h-26.13v33.66c0 5.77-3 8.81-8.81 8.81h-10.42c-5.77 0-8.81-3-8.81-8.81z" fill="url(#Unbenannter_Verlauf_3-10)"/></g></g></svg>