<svg id="Ebene_1" data-name="Ebene 1" xmlns="http://www.w3.org/2000/svg" viewBox="0 0 512 512"><defs><style>.cls-3{fill:none;stroke:#61ff7e;stroke-width:6.09px;stroke-linecap:round;stroke-linejoin:round}.cls-4{fill:#61ff7e}</style><clipPath id="clip-path"><path d="M263 337a5.46 5.46 0 1 1 5.46 5.46A5.46 5.46 0 0 1 263 337m-6.21-19.64A22.79 22.79 0 0 0 245.66 337v31l15.17 15.11h5.22a2.48 2.48 0 0 0 2.45-2.07V359.8a22.7 22.7 0 0 0 11.73-3.24 20.1 20.1 0 0 0 1.8-1.2 22.63 22.63 0 0 0 4.89-4.88c.42-.58.82-1.17 1.19-1.8a22.9 22.9 0 0 0-1.36-25.48 23.15 23.15 0 0 0-4.75-4.68c-.63-.46-1.29-.89-2-1.29a22.84 22.84 0 0 0-23.2.09" fill="none"/></clipPath><linearGradient id="linear-gradient" x1="-1806" y1="1255.13" x2="-1805.77" y2="1255.13" gradientTransform="matrix(652.93 .01 .01 -652.93 1179399.46 819882.64)" gradientUnits="userSpaceOnUse"><stop offset="0" stop-color="#04c956"/><stop offset="1" stop-color="#61ff7e"/></linearGradient></defs><g opacity=".4"><path class="cls-3" d="M409.69 116.66l-19.17-17.88m.54 15.44l17.87-19.17m-58.49 32.53a9.29 9.29 0 1 1 8.95-9.6 9.28 9.28 0 0 1-8.95 9.6zm21.16-41.21l-16.21-14.65m.78 15.43l14.65-16.21m53.63 237.17l-16.2-14.64m.78 15.42l14.64-16.2"/><path class="cls-4" d="M427.19 166.42a12.56 12.56 0 1 1 12.11-13 12.57 12.57 0 0 1-12.11 13z"/><path class="cls-3" d="M382.12 252.17l-23.51.83m10.27 13.37l-.75-21.55m37-33.86l-19.16-17.87m.54 15.43l17.87-19.17m-58.49 32.53a9.28 9.28 0 1 1 8.95-9.6 9.28 9.28 0 0 1-8.95 9.6zm36.35-57.51l-16.2-14.65m.78 15.43l14.65-16.21"/><path class="cls-4" d="M422.64 260.72a12.56 12.56 0 1 1 12.11-13 12.56 12.56 0 0 1-12.11 13z"/><path class="cls-3" d="M327.7 322.72l-23.51.82m10.28 13.37l-.75-21.55m37-33.85l-19.16-17.88m.53 15.44l17.88-19.17"/><path class="cls-4" d="M291.47 292.43a9.28 9.28 0 1 1 9-9.6 9.28 9.28 0 0 1-9 9.6z"/><path class="cls-3" d="M312.63 251.22l-16.2-14.65m.78 15.43l14.64-16.21m56.38 95.48a12.56 12.56 0 1 1 12.11-13 12.56 12.56 0 0 1-12.11 13zm-85.11-161.94l-23.51.83m10.27 13.37l-.75-21.55m37.01-33.86l-19.17-17.87m.54 15.43l17.87-19.17"/><path class="cls-4" d="M246.89 139a9.28 9.28 0 1 1 9-9.6 9.28 9.28 0 0 1-9 9.6zM308 81.71a9.28 9.28 0 1 1 9-9.6 9.28 9.28 0 0 1-9 9.6z"/><path class="cls-3" d="M268.05 97.83l-16.21-14.65m.78 15.43l14.65-16.2"/><path class="cls-4" d="M323.64 177.88a12.56 12.56 0 1 1 12.11-13 12.57 12.57 0 0 1-12.11 13z"/><path class="cls-3" d="M192.94 170.52l-23.51.82m10.27 13.38l-.75-21.55m37.01-33.86l-19.17-17.87m.54 15.43l17.87-19.17m-58.49 32.53a9.28 9.28 0 1 1 8.95-9.6 9.28 9.28 0 0 1-8.95 9.6zm21.16-41.21l-16.21-14.65m.78 15.43l14.65-16.2m56.37 95.47a12.56 12.56 0 1 1 12.11-13 12.57 12.57 0 0 1-12.11 13zM216.9 66.11a12.56 12.56 0 1 1 12.11-13 12.56 12.56 0 0 1-12.11 13zM118.52 230l-23.5.82m10.27 13.37l-.75-21.54m37-33.86l-19.16-17.88m.54 15.44l17.87-19.17m-58.5 32.53a9.28 9.28 0 1 1 9-9.6 9.28 9.28 0 0 1-9 9.6zm21.16-41.21l-16.2-14.65m.78 15.43l14.64-16.21"/><path class="cls-4" d="M159.05 238.55a12.56 12.56 0 1 1 12.11-13 12.56 12.56 0 0 1-12.11 13zm-9.14 99.67a12.56 12.56 0 1 1 12.12-13 12.55 12.55 0 0 1-12.12 13zm-36.44-230.54a12.56 12.56 0 1 1 12.12-13 12.55 12.55 0 0 1-12.12 13z"/><path class="cls-3" d="M155.77 285.58l-23.51.82m10.27 13.37l-.75-21.55m66.01 10.24l-19.17-17.87m.54 15.43l17.87-19.16"/><path class="cls-4" d="M198.61 329a9.29 9.29 0 1 1 8.95-9.61 9.28 9.28 0 0 1-8.95 9.61z"/><path class="cls-3" d="M113.5 277.79l-16.2-14.65m.78 15.43l14.65-16.21m99-31.54a12.56 12.56 0 1 1 12.12-13 12.54 12.54 0 0 1-12.12 13zm32.49 116.39l-23.51.82m10.28 13.37l-.76-21.54M267.24 306l-19.17-17.87m.54 15.43l17.87-19.17m12.8-60.18a9.29 9.29 0 1 1 9-9.6 9.29 9.29 0 0 1-9 9.6zm-23.73 21.16l-16.2-14.65m.77 15.42l14.65-16.2m29.98 125.82a12.56 12.56 0 1 1 12.11-13 12.55 12.55 0 0 1-12.11 13z"/></g><rect x="179.18" y="134.47" width="178.86" height="336.53" rx="25.89" ry="25.89" stroke="#505050" stroke-width="3.05" fill="#f0f5f5" stroke-miterlimit="10"/><rect x="221.54" y="301.56" width="94.13" height="94.13" rx="14.12" ry="14.12" fill="#fff"/><g clip-path="url(#clip-path)"><path transform="rotate(-26.87 268.456 348.596)" fill="url(#linear-gradient)" d="M232.53 307.51h71.96v82.23h-71.96z"/></g><path d="M245.66 368h12.66a2.49 2.49 0 0 1 2.48 2.49v12.66z" fill="#04a547"/><path d="M216.84 134.47v3c0 7.39 8.46 13.5 19.26 13.5h67.37c10.8 0 19.27-6.11 19.27-13.5v-3zm-37.66 89.85c0 1.28-.29 2.32-1.18 2.32-.88 0-1.17-1-1.17-2.32V198c0-1.28.29-2.32 1.17-2.32.89 0 1.18 1 1.18 2.32zm0 44.68c0 1.29-.29 2.33-1.18 2.33-.88 0-1.17-1-1.17-2.33v-26.31c0-1.28.29-2.32 1.17-2.32.89 0 1.18 1 1.18 2.32zm181.21-18.85c0 2-.29 3.56-1.18 3.56-.88 0-1.17-1.6-1.17-3.56V209.8c0-2 .29-3.55 1.17-3.55.89 0 1.18 1.59 1.18 3.55z" stroke="#505050" stroke-width="3.05" fill="#505050" stroke-linecap="round" stroke-linejoin="round"/><path d="M323 196.64a9.11 9.11 0 1 1-9.1-9.11 9.11 9.11 0 0 1 9.1 9.11zm-87.36 0a9.11 9.11 0 1 1-9.11-9.11 9.11 9.11 0 0 1 9.11 9.11zm13.01 43.62a1.37 1.37 0 0 0 0 .36c0 8.49 9.86 15.24 22 15.24s22-6.69 22-15.17a2.19 2.19 0 0 0 0-.43z"/></svg>