<svg id="Ebene_1" data-name="Ebene 1" xmlns="http://www.w3.org/2000/svg" viewBox="0 0 512 512"><defs><style>.cls-1{opacity:0.4;}.cls-2,.cls-6{fill:none;}.cls-2{stroke:#61ff7e;stroke-width:5.86px;}.cls-2,.cls-4,.cls-5,.cls-6{stroke-linecap:round;stroke-linejoin:round;}.cls-3{fill:#61ff7e;}.cls-4{fill:#faffff;}.cls-4,.cls-5,.cls-6{stroke:#505050;stroke-width:2.93px;}.cls-5{fill:#f0f5f5;}</style></defs><title>tutorial_2</title><g class="cls-1"><line class="cls-2" x1="403.78" y1="120.75" x2="385.35" y2="103.56"/><line class="cls-2" x1="385.87" y1="118.4" x2="403.05" y2="99.97"/><path class="cls-2" d="M346.81,131.25a8.93,8.93,0,1,1,8.61-9.23A8.92,8.92,0,0,1,346.81,131.25Z"/><line class="cls-2" x1="367.15" y1="91.62" x2="351.57" y2="77.54"/><line class="cls-2" x1="352.32" y1="92.37" x2="366.4" y2="76.79"/><line class="cls-2" x1="417.98" y1="304.84" x2="402.4" y2="290.76"/><line class="cls-2" x1="403.15" y1="305.59" x2="417.23" y2="290.01"/><path class="cls-3" d="M420.61,168.6a12.08,12.08,0,1,1,11.65-12.49A12.08,12.08,0,0,1,420.61,168.6Z"/><line class="cls-2" x1="377.27" y1="251.06" x2="354.66" y2="251.85"/><line class="cls-2" x1="364.54" y1="264.7" x2="363.82" y2="243.98"/><line class="cls-2" x1="399.4" y1="211.43" x2="380.97" y2="194.24"/><line class="cls-2" x1="381.49" y1="209.08" x2="398.68" y2="190.65"/><path class="cls-2" d="M342.43,221.93A8.93,8.93,0,1,1,351,212.7,8.93,8.93,0,0,1,342.43,221.93Z"/><line class="cls-2" x1="377.39" y1="166.63" x2="361.81" y2="152.54"/><line class="cls-2" x1="362.56" y1="167.38" x2="376.64" y2="151.8"/><path class="cls-3" d="M416.24,259.28a12.08,12.08,0,1,1,11.64-12.49A12.07,12.07,0,0,1,416.24,259.28Z"/><line class="cls-2" x1="324.95" y1="318.89" x2="302.34" y2="319.68"/><line class="cls-2" x1="312.22" y1="332.54" x2="311.5" y2="311.82"/><line class="cls-2" x1="347.08" y1="279.26" x2="328.65" y2="262.08"/><line class="cls-2" x1="329.17" y1="276.92" x2="346.35" y2="258.49"/><path class="cls-3" d="M290.11,289.77a8.93,8.93,0,1,1,8.61-9.24A8.93,8.93,0,0,1,290.11,289.77Z"/><line class="cls-2" x1="310.45" y1="250.14" x2="294.87" y2="236.05"/><line class="cls-2" x1="295.62" y1="250.89" x2="309.71" y2="235.31"/><path class="cls-2" d="M363.91,327.11a12.07,12.07,0,1,1,11.65-12.49A12.08,12.08,0,0,1,363.91,327.11Z"/><line class="cls-2" x1="282.07" y1="171.4" x2="259.47" y2="172.19"/><line class="cls-2" x1="269.35" y1="185.05" x2="268.63" y2="164.33"/><line class="cls-2" x1="304.21" y1="131.77" x2="285.78" y2="114.59"/><line class="cls-2" x1="286.3" y1="129.42" x2="303.48" y2="111"/><path class="cls-3" d="M247.24,142.27a8.93,8.93,0,1,1,8.61-9.23A8.91,8.91,0,0,1,247.24,142.27Z"/><path class="cls-3" d="M306,87.15a8.93,8.93,0,1,1,8.6-9.23A8.94,8.94,0,0,1,306,87.15Z"/><line class="cls-2" x1="267.58" y1="102.65" x2="252" y2="88.56"/><line class="cls-2" x1="252.75" y1="103.39" x2="266.83" y2="87.81"/><path class="cls-3" d="M321,179.62a12.08,12.08,0,1,1,11.65-12.49A12.08,12.08,0,0,1,321,179.62Z"/><line class="cls-2" x1="195.36" y1="172.54" x2="172.76" y2="173.33"/><line class="cls-2" x1="182.64" y1="186.19" x2="181.91" y2="165.47"/><line class="cls-2" x1="217.49" y1="132.91" x2="199.07" y2="115.73"/><line class="cls-2" x1="199.58" y1="130.57" x2="216.77" y2="112.14"/><path class="cls-2" d="M160.52,143.42a8.93,8.93,0,1,1,8.61-9.24A8.93,8.93,0,0,1,160.52,143.42Z"/><line class="cls-2" x1="180.87" y1="103.79" x2="165.29" y2="89.71"/><line class="cls-2" x1="166.04" y1="104.54" x2="180.12" y2="88.96"/><path class="cls-2" d="M234.33,180.76A12.07,12.07,0,1,1,246,168.28,12.06,12.06,0,0,1,234.33,180.76Z"/><path class="cls-2" d="M218.4,72.14a12.07,12.07,0,1,1,11.65-12.49A12.08,12.08,0,0,1,218.4,72.14Z"/><line class="cls-2" x1="123.81" y1="229.74" x2="101.2" y2="230.53"/><line class="cls-2" x1="111.08" y1="243.38" x2="110.36" y2="222.66"/><line class="cls-2" x1="145.94" y1="190.11" x2="127.51" y2="172.92"/><line class="cls-2" x1="128.03" y1="187.76" x2="145.22" y2="169.33"/><path class="cls-2" d="M89,200.61a8.93,8.93,0,1,1,8.61-9.23A8.93,8.93,0,0,1,89,200.61Z"/><line class="cls-2" x1="109.32" y1="160.98" x2="93.74" y2="146.9"/><line class="cls-2" x1="94.48" y1="161.73" x2="108.57" y2="146.15"/><path class="cls-3" d="M162.77,238a12.08,12.08,0,1,1,11.65-12.49A12.07,12.07,0,0,1,162.77,238Z"/><path class="cls-3" d="M154,333.79a12.07,12.07,0,1,1,11.65-12.49A12.08,12.08,0,0,1,154,333.79Z"/><path class="cls-3" d="M119,112.11A12.07,12.07,0,1,1,130.6,99.63,12.08,12.08,0,0,1,119,112.11Z"/><line class="cls-2" x1="159.62" y1="283.18" x2="137.02" y2="283.97"/><line class="cls-2" x1="146.9" y1="296.82" x2="146.17" y2="276.1"/><line class="cls-2" x1="209.64" y1="285.95" x2="191.21" y2="268.76"/><line class="cls-2" x1="191.73" y1="283.6" x2="208.91" y2="265.17"/><path class="cls-3" d="M200.81,325a8.93,8.93,0,1,1,8.61-9.24A8.93,8.93,0,0,1,200.81,325Z"/><line class="cls-2" x1="118.98" y1="275.69" x2="103.4" y2="261.6"/><line class="cls-2" x1="104.15" y1="276.43" x2="118.23" y2="260.85"/><path class="cls-2" d="M213.44,230.53A12.08,12.08,0,1,1,225.08,218,12.07,12.07,0,0,1,213.44,230.53Z"/><line class="cls-2" x1="244.67" y1="342.44" x2="222.07" y2="343.23"/><line class="cls-2" x1="231.95" y1="356.09" x2="231.22" y2="335.37"/><line class="cls-2" x1="266.81" y1="302.81" x2="248.38" y2="285.63"/><line class="cls-2" x1="248.9" y1="300.47" x2="266.08" y2="282.04"/><path class="cls-2" d="M278.39,224.17a8.93,8.93,0,1,1,8.61-9.24A8.93,8.93,0,0,1,278.39,224.17Z"/><line class="cls-2" x1="255.57" y1="244.51" x2="239.99" y2="230.43"/><line class="cls-2" x1="240.73" y1="245.26" x2="254.82" y2="229.68"/><path class="cls-2" d="M283.64,350.66a12.07,12.07,0,1,1,11.65-12.49A12.08,12.08,0,0,1,283.64,350.66Z"/></g><path class="cls-4" d="M151.28,143.61s2.76,177.12,3,316.06c0,0,209.87,4.33,218.62,4.33-1.1-14.66,1.28-173.6,1.14-262.85-21.72-21.59-63.55-55.72-69.58-60.92C238.72,140.21,151.28,143.61,151.28,143.61Z"/><path class="cls-5" d="M304.2,201.46s-2.35-57.21.51-60.86C314.59,148,370,197.52,373,200.37,361.54,202.75,304.2,201.46,304.2,201.46Z"/><line class="cls-6" x1="185.16" y1="337.65" x2="255.64" y2="337.65"/><line class="cls-6" x1="185.16" y1="362.41" x2="339.44" y2="362.41"/><line class="cls-6" x1="185.16" y1="387.17" x2="339.44" y2="387.17"/><line class="cls-6" x1="185.16" y1="411.93" x2="339.44" y2="411.93"/><path d="M305,243.05a7.37,7.37,0,1,1-7.37-7.37A7.37,7.37,0,0,1,305,243.05Z"/><path d="M234.31,243.05a7.37,7.37,0,1,1-7.37-7.37A7.37,7.37,0,0,1,234.31,243.05Z"/><path d="M244.84,278.35a1.17,1.17,0,0,0,0,.3c0,6.86,8,12.33,17.83,12.33s17.83-5.41,17.83-12.28a1.81,1.81,0,0,0,0-.35Z"/></svg>