<svg id="Ebene_1" data-name="Ebene 1" xmlns="http://www.w3.org/2000/svg" xmlns:xlink="http://www.w3.org/1999/xlink" viewBox="0 0 512 512"><defs><style>.cls-1,.cls-3{fill:none;}.cls-2{opacity:0.4;}.cls-3{stroke:#61ff7e;stroke-width:6.09px;}.cls-10,.cls-3{stroke-linecap:round;stroke-linejoin:round;}.cls-4{fill:#61ff7e;}.cls-5{fill:#f0f5f5;stroke-miterlimit:10;}.cls-10,.cls-5{stroke:#505050;stroke-width:3.05px;}.cls-6{fill:#fff;}.cls-7{clip-path:url(#clip-path);}.cls-8{fill:url(#linear-gradient);}.cls-9{fill:#04a547;}.cls-10{fill:#505050;}</style><clipPath id="clip-path"><path class="cls-1" d="M263,337a5.46,5.46,0,1,1,5.46,5.46A5.46,5.46,0,0,1,263,337m-6.21-19.64A22.79,22.79,0,0,0,245.66,337V368l15.17,15.11h5.22a2.48,2.48,0,0,0,2.45-2.07V359.8a22.7,22.7,0,0,0,11.73-3.24,20.1,20.1,0,0,0,1.8-1.2,22.63,22.63,0,0,0,4.89-4.88c.42-.58.82-1.17,1.19-1.8h0a22.9,22.9,0,0,0-1.36-25.48,23.15,23.15,0,0,0-4.75-4.68c-.63-.46-1.29-.89-2-1.29a22.84,22.84,0,0,0-23.2.09"/></clipPath><linearGradient id="linear-gradient" x1="-1806" y1="1255.13" x2="-1805.77" y2="1255.13" gradientTransform="matrix(652.93, 0.01, 0.01, -652.93, 1179399.46, 819882.64)" gradientUnits="userSpaceOnUse"><stop offset="0" stop-color="#04c956"/><stop offset="1" stop-color="#61ff7e"/></linearGradient></defs><title>tutorial_3</title><g class="cls-2"><line class="cls-3" x1="409.69" y1="116.66" x2="390.52" y2="98.78"/><line class="cls-3" x1="391.06" y1="114.22" x2="408.93" y2="95.05"/><path class="cls-3" d="M350.44,127.58a9.29,9.29,0,1,1,8.95-9.6A9.28,9.28,0,0,1,350.44,127.58Z"/><line class="cls-3" x1="371.6" y1="86.37" x2="355.39" y2="71.72"/><line class="cls-3" x1="356.17" y1="87.15" x2="370.82" y2="70.94"/><line class="cls-3" x1="424.45" y1="308.11" x2="408.25" y2="293.47"/><line class="cls-3" x1="409.03" y1="308.89" x2="423.67" y2="292.69"/><path class="cls-4" d="M427.19,166.42a12.56,12.56,0,1,1,12.11-13A12.57,12.57,0,0,1,427.19,166.42Z"/><line class="cls-3" x1="382.12" y1="252.17" x2="358.61" y2="253"/><line class="cls-3" x1="368.88" y1="266.37" x2="368.13" y2="244.82"/><line class="cls-3" x1="405.13" y1="210.96" x2="385.97" y2="193.09"/><line class="cls-3" x1="386.51" y1="208.52" x2="404.38" y2="189.35"/><path class="cls-3" d="M345.89,221.88a9.28,9.28,0,1,1,8.95-9.6A9.28,9.28,0,0,1,345.89,221.88Z"/><line class="cls-3" x1="382.24" y1="164.37" x2="366.04" y2="149.72"/><line class="cls-3" x1="366.82" y1="165.15" x2="381.47" y2="148.94"/><path class="cls-4" d="M422.64,260.72a12.56,12.56,0,1,1,12.11-13A12.56,12.56,0,0,1,422.64,260.72Z"/><line class="cls-3" x1="327.7" y1="322.72" x2="304.19" y2="323.54"/><line class="cls-3" x1="314.47" y1="336.91" x2="313.72" y2="315.36"/><line class="cls-3" x1="350.72" y1="281.51" x2="331.56" y2="263.63"/><line class="cls-3" x1="332.09" y1="279.07" x2="349.97" y2="259.9"/><path class="cls-4" d="M291.47,292.43a9.28,9.28,0,1,1,9-9.6A9.28,9.28,0,0,1,291.47,292.43Z"/><line class="cls-3" x1="312.63" y1="251.22" x2="296.43" y2="236.57"/><line class="cls-3" x1="297.21" y1="252" x2="311.85" y2="235.79"/><path class="cls-3" d="M368.23,331.27a12.56,12.56,0,1,1,12.11-13A12.56,12.56,0,0,1,368.23,331.27Z"/><line class="cls-3" x1="283.12" y1="169.33" x2="259.61" y2="170.16"/><line class="cls-3" x1="269.88" y1="183.53" x2="269.13" y2="161.98"/><line class="cls-3" x1="306.14" y1="128.12" x2="286.97" y2="110.25"/><line class="cls-3" x1="287.51" y1="125.68" x2="305.38" y2="106.51"/><path class="cls-4" d="M246.89,139a9.28,9.28,0,1,1,9-9.6A9.28,9.28,0,0,1,246.89,139Z"/><path class="cls-4" d="M308,81.71a9.28,9.28,0,1,1,9-9.6A9.28,9.28,0,0,1,308,81.71Z"/><line class="cls-3" x1="268.05" y1="97.83" x2="251.84" y2="83.18"/><line class="cls-3" x1="252.62" y1="98.61" x2="267.27" y2="82.41"/><path class="cls-4" d="M323.64,177.88a12.56,12.56,0,1,1,12.11-13A12.57,12.57,0,0,1,323.64,177.88Z"/><line class="cls-3" x1="192.94" y1="170.52" x2="169.43" y2="171.34"/><line class="cls-3" x1="179.7" y1="184.72" x2="178.95" y2="163.17"/><line class="cls-3" x1="215.96" y1="129.31" x2="196.79" y2="111.44"/><line class="cls-3" x1="197.33" y1="126.87" x2="215.2" y2="107.7"/><path class="cls-3" d="M156.71,140.23a9.28,9.28,0,1,1,8.95-9.6A9.28,9.28,0,0,1,156.71,140.23Z"/><line class="cls-3" x1="177.87" y1="99.02" x2="161.66" y2="84.37"/><line class="cls-3" x1="162.44" y1="99.8" x2="177.09" y2="83.6"/><path class="cls-3" d="M233.46,179.07a12.56,12.56,0,1,1,12.11-13A12.57,12.57,0,0,1,233.46,179.07Z"/><path class="cls-3" d="M216.9,66.11a12.56,12.56,0,1,1,12.11-13A12.56,12.56,0,0,1,216.9,66.11Z"/><line class="cls-3" x1="118.52" y1="230" x2="95.02" y2="230.82"/><line class="cls-3" x1="105.29" y1="244.19" x2="104.54" y2="222.65"/><line class="cls-3" x1="141.54" y1="188.79" x2="122.38" y2="170.91"/><line class="cls-3" x1="122.92" y1="186.35" x2="140.79" y2="167.18"/><path class="cls-3" d="M82.29,199.71a9.28,9.28,0,1,1,9-9.6A9.28,9.28,0,0,1,82.29,199.71Z"/><line class="cls-3" x1="103.45" y1="158.5" x2="87.25" y2="143.85"/><line class="cls-3" x1="88.03" y1="159.28" x2="102.67" y2="143.07"/><path class="cls-4" d="M159.05,238.55a12.56,12.56,0,1,1,12.11-13A12.56,12.56,0,0,1,159.05,238.55Z"/><path class="cls-4" d="M149.91,338.22a12.56,12.56,0,1,1,12.12-13A12.55,12.55,0,0,1,149.91,338.22Z"/><path class="cls-4" d="M113.47,107.68a12.56,12.56,0,1,1,12.12-13A12.55,12.55,0,0,1,113.47,107.68Z"/><line class="cls-3" x1="155.77" y1="285.58" x2="132.26" y2="286.4"/><line class="cls-3" x1="142.53" y1="299.77" x2="141.78" y2="278.22"/><line class="cls-3" x1="207.79" y1="288.46" x2="188.62" y2="270.59"/><line class="cls-3" x1="189.16" y1="286.02" x2="207.03" y2="266.86"/><path class="cls-4" d="M198.61,329a9.29,9.29,0,1,1,8.95-9.61A9.28,9.28,0,0,1,198.61,329Z"/><line class="cls-3" x1="113.5" y1="277.79" x2="97.3" y2="263.14"/><line class="cls-3" x1="98.08" y1="278.57" x2="112.73" y2="262.36"/><path class="cls-3" d="M211.73,230.82a12.56,12.56,0,1,1,12.12-13A12.54,12.54,0,0,1,211.73,230.82Z"/><line class="cls-3" x1="244.22" y1="347.21" x2="220.71" y2="348.03"/><line class="cls-3" x1="230.99" y1="361.4" x2="230.23" y2="339.86"/><line class="cls-3" x1="267.24" y1="306" x2="248.07" y2="288.13"/><line class="cls-3" x1="248.61" y1="303.56" x2="266.48" y2="284.39"/><path class="cls-3" d="M279.28,224.21a9.29,9.29,0,1,1,9-9.6A9.29,9.29,0,0,1,279.28,224.21Z"/><line class="cls-3" x1="255.55" y1="245.37" x2="239.35" y2="230.72"/><line class="cls-3" x1="240.12" y1="246.14" x2="254.77" y2="229.94"/><path class="cls-3" d="M284.75,355.76a12.56,12.56,0,1,1,12.11-13A12.55,12.55,0,0,1,284.75,355.76Z"/></g><rect class="cls-5" x="179.18" y="134.47" width="178.86" height="336.53" rx="25.89" ry="25.89"/><rect class="cls-6" x="221.54" y="301.56" width="94.13" height="94.13" rx="14.12" ry="14.12"/><g class="cls-7"><rect class="cls-8" x="232.53" y="307.51" width="71.96" height="82.23" transform="translate(-128.57 158.97) rotate(-26.87)"/></g><path class="cls-9" d="M245.66,368h12.66a2.49,2.49,0,0,1,2.48,2.49l0,12.66Z"/><path class="cls-10" d="M216.84,134.47v3c0,7.39,8.46,13.5,19.26,13.5h67.37c10.8,0,19.27-6.11,19.27-13.5v-3Z"/><path class="cls-10" d="M179.18,224.32c0,1.28-.29,2.32-1.18,2.32h0c-.88,0-1.17-1-1.17-2.32V198c0-1.28.29-2.32,1.17-2.32h0c.89,0,1.18,1,1.18,2.32Z"/><path class="cls-10" d="M179.18,269c0,1.29-.29,2.33-1.18,2.33h0c-.88,0-1.17-1-1.17-2.33V242.69c0-1.28.29-2.32,1.17-2.32h0c.89,0,1.18,1,1.18,2.32Z"/><path class="cls-10" d="M360.39,250.15c0,2-.29,3.56-1.18,3.56h0c-.88,0-1.17-1.6-1.17-3.56V209.8c0-2,.29-3.55,1.17-3.55h0c.89,0,1.18,1.59,1.18,3.55Z"/><path d="M323,196.64a9.11,9.11,0,1,1-9.1-9.11A9.11,9.11,0,0,1,323,196.64Z"/><path d="M235.64,196.64a9.11,9.11,0,1,1-9.11-9.11A9.11,9.11,0,0,1,235.64,196.64Z"/><path d="M248.65,240.26a1.37,1.37,0,0,0,0,.36c0,8.49,9.86,15.24,22,15.24s22-6.69,22-15.17a2.19,2.19,0,0,0,0-.43Z"/></svg>