<svg id="Ebene_1" data-name="Ebene 1" xmlns="http://www.w3.org/2000/svg" viewBox="0 0 512 512"><defs><style>.cls-1{opacity:0.4;}.cls-11,.cls-2{fill:none;}.cls-2{stroke:#61ff7e;stroke-width:5.95px;}.cls-10,.cls-11,.cls-2,.cls-4,.cls-5,.cls-6,.cls-7,.cls-8,.cls-9{stroke-linecap:round;stroke-linejoin:round;}.cls-3,.cls-6{fill:#61ff7e;}.cls-4{fill:#c8c8c8;}.cls-10,.cls-11,.cls-4,.cls-5,.cls-6,.cls-7,.cls-8,.cls-9{stroke:#505050;stroke-width:2.98px;}.cls-5{fill:#787878;}.cls-7{fill:#e70000;}.cls-8{fill:#04c956;}.cls-9{fill:#faffff;}.cls-10{fill:#f0f5f5;}</style></defs><title>tutorial_1</title><g class="cls-1"><line class="cls-2" x1="406.12" y1="115.4" x2="387.4" y2="97.94"/><line class="cls-2" x1="387.92" y1="113.01" x2="405.38" y2="94.29"/><path class="cls-2" d="M348.24,126.07a9.07,9.07,0,1,1,8.75-9.38A9.06,9.06,0,0,1,348.24,126.07Z"/><line class="cls-2" x1="368.91" y1="85.81" x2="353.08" y2="71.51"/><line class="cls-2" x1="353.84" y1="86.57" x2="368.15" y2="70.75"/><line class="cls-2" x1="420.54" y1="302.41" x2="404.71" y2="288.1"/><line class="cls-2" x1="405.47" y1="303.17" x2="419.78" y2="287.34"/><path class="cls-3" d="M423.21,164a12.27,12.27,0,1,1,11.84-12.69A12.27,12.27,0,0,1,423.21,164Z"/><line class="cls-2" x1="379.19" y1="247.77" x2="356.22" y2="248.57"/><line class="cls-2" x1="366.26" y1="261.63" x2="365.52" y2="240.58"/><line class="cls-2" x1="401.67" y1="207.51" x2="382.95" y2="190.05"/><line class="cls-2" x1="383.48" y1="205.13" x2="400.93" y2="186.41"/><path class="cls-2" d="M343.8,218.18a9.07,9.07,0,1,1,8.74-9.38A9.07,9.07,0,0,1,343.8,218.18Z"/><line class="cls-2" x1="379.31" y1="162" x2="363.49" y2="147.7"/><line class="cls-2" x1="364.25" y1="162.76" x2="378.55" y2="146.94"/><path class="cls-3" d="M418.77,256.12a12.27,12.27,0,1,1,11.83-12.69A12.28,12.28,0,0,1,418.77,256.12Z"/><line class="cls-2" x1="326.04" y1="316.68" x2="303.07" y2="317.48"/><line class="cls-2" x1="313.11" y1="330.54" x2="312.37" y2="309.49"/><line class="cls-2" x1="348.52" y1="276.42" x2="329.8" y2="258.96"/><line class="cls-2" x1="330.33" y1="274.04" x2="347.78" y2="255.32"/><path class="cls-3" d="M290.65,287.09a9.07,9.07,0,1,1,8.74-9.38A9.08,9.08,0,0,1,290.65,287.09Z"/><line class="cls-2" x1="311.32" y1="246.83" x2="295.49" y2="232.53"/><line class="cls-2" x1="296.25" y1="247.59" x2="310.56" y2="231.77"/><path class="cls-2" d="M365.62,325a12.27,12.27,0,1,1,11.83-12.69A12.28,12.28,0,0,1,365.62,325Z"/><line class="cls-2" x1="282.49" y1="166.85" x2="259.53" y2="167.66"/><line class="cls-2" x1="269.56" y1="180.71" x2="268.82" y2="159.67"/><line class="cls-2" x1="304.97" y1="126.6" x2="286.25" y2="109.14"/><line class="cls-2" x1="286.78" y1="124.21" x2="304.23" y2="105.49"/><path class="cls-3" d="M247.1,137.26a9.07,9.07,0,1,1,8.74-9.37A9.07,9.07,0,0,1,247.1,137.26Z"/><path class="cls-3" d="M306.76,81.27a9.07,9.07,0,1,1,8.74-9.38A9.07,9.07,0,0,1,306.76,81.27Z"/><line class="cls-2" x1="267.77" y1="97.01" x2="251.94" y2="82.7"/><line class="cls-2" x1="252.7" y1="97.77" x2="267.01" y2="81.94"/><path class="cls-3" d="M322.07,175.2a12.27,12.27,0,1,1,11.83-12.68A12.27,12.27,0,0,1,322.07,175.2Z"/><line class="cls-2" x1="194.4" y1="168.01" x2="171.44" y2="168.82"/><line class="cls-2" x1="181.48" y1="181.88" x2="180.74" y2="160.83"/><line class="cls-2" x1="216.89" y1="127.76" x2="198.17" y2="110.3"/><line class="cls-2" x1="198.69" y1="125.37" x2="216.15" y2="106.65"/><path class="cls-2" d="M159,138.43a9.07,9.07,0,1,1,8.75-9.38A9.06,9.06,0,0,1,159,138.43Z"/><line class="cls-2" x1="179.68" y1="98.17" x2="163.85" y2="83.87"/><line class="cls-2" x1="164.61" y1="98.93" x2="178.92" y2="83.11"/><path class="cls-2" d="M234,176.36a12.26,12.26,0,1,1,11.83-12.68A12.27,12.27,0,0,1,234,176.36Z"/><path class="cls-2" d="M217.81,66a12.26,12.26,0,1,1,11.83-12.68A12.26,12.26,0,0,1,217.81,66Z"/><line class="cls-2" x1="121.72" y1="226.11" x2="98.75" y2="226.91"/><line class="cls-2" x1="108.79" y1="239.97" x2="108.05" y2="218.93"/><line class="cls-2" x1="144.2" y1="185.85" x2="125.48" y2="168.4"/><line class="cls-2" x1="126.01" y1="183.47" x2="143.46" y2="164.75"/><path class="cls-2" d="M86.33,196.52a9.07,9.07,0,1,1,8.74-9.38A9.06,9.06,0,0,1,86.33,196.52Z"/><line class="cls-2" x1="107" y1="156.27" x2="91.17" y2="141.96"/><line class="cls-2" x1="91.93" y1="157.03" x2="106.24" y2="141.2"/><path class="cls-3" d="M161.3,234.46a12.27,12.27,0,1,1,11.83-12.69A12.27,12.27,0,0,1,161.3,234.46Z"/><path class="cls-3" d="M152.38,331.81a12.26,12.26,0,1,1,11.83-12.68A12.27,12.27,0,0,1,152.38,331.81Z"/><path class="cls-3" d="M116.78,106.63a12.27,12.27,0,1,1,11.84-12.69A12.26,12.26,0,0,1,116.78,106.63Z"/><line class="cls-2" x1="158.1" y1="280.4" x2="135.14" y2="281.2"/><line class="cls-2" x1="145.17" y1="294.26" x2="144.43" y2="273.21"/><line class="cls-2" x1="208.91" y1="283.21" x2="190.19" y2="265.76"/><line class="cls-2" x1="190.71" y1="280.83" x2="208.17" y2="262.11"/><path class="cls-3" d="M199.94,322.83a9.07,9.07,0,1,1,8.75-9.38A9.08,9.08,0,0,1,199.94,322.83Z"/><line class="cls-2" x1="116.81" y1="272.79" x2="100.99" y2="258.48"/><line class="cls-2" x1="101.75" y1="273.55" x2="116.05" y2="257.72"/><path class="cls-2" d="M212.76,226.92a12.27,12.27,0,1,1,11.83-12.69A12.26,12.26,0,0,1,212.76,226.92Z"/><line class="cls-2" x1="244.49" y1="340.6" x2="221.53" y2="341.4"/><line class="cls-2" x1="231.57" y1="354.46" x2="230.83" y2="333.41"/><line class="cls-2" x1="266.98" y1="300.34" x2="248.26" y2="282.88"/><line class="cls-2" x1="248.79" y1="297.96" x2="266.24" y2="279.24"/><path class="cls-2" d="M278.74,220.45a9.07,9.07,0,1,1,8.75-9.38A9.06,9.06,0,0,1,278.74,220.45Z"/><line class="cls-2" x1="255.56" y1="241.12" x2="239.73" y2="226.81"/><line class="cls-2" x1="240.49" y1="241.88" x2="254.8" y2="226.05"/><path class="cls-2" d="M284.08,349a12.27,12.27,0,1,1,11.83-12.69A12.27,12.27,0,0,1,284.08,349Z"/></g><path class="cls-4" d="M391.46,375.65c0,7.4-4.68,14.65-12,14.65H145.31c-7.32,0-14.51-7.25-14.51-14.65V259.57c0-7.39,7.19-12.14,14.51-12.14H379.46c7.32,0,12,4.75,12,12.14Z"/><rect class="cls-5" x="160.88" y="337.66" width="200.51" height="52.63"/><path class="cls-6" d="M148.34,247.43v46.41c0,12.48,8,23.77,16.29,23.77h193c8.3,0,13.78-11.29,13.78-23.77V247.43Z"/><path class="cls-7" d="M349.27,299a6.48,6.48,0,1,1-6.47-6.47A6.48,6.48,0,0,1,349.27,299Z"/><path class="cls-8" d="M324.21,299a6.48,6.48,0,1,1-6.48-6.47A6.48,6.48,0,0,1,324.21,299Z"/><path class="cls-9" d="M188.35,142.82s1.91,74.92,2.06,133.69c0,0,145.1,1.83,151.14,1.83-.76-6.2.16-57.62.06-95.37-15-9.13-43.2-39.38-47.37-41.58C248.81,141.38,188.35,142.82,188.35,142.82Z"/><path class="cls-10" d="M294.08,183.72s-1.63-39.55.35-42.07c6.83,5.13,45.11,39.35,47.18,41.32C333.72,184.62,294.08,183.72,294.08,183.72Z"/><path d="M294.65,212.47a5.1,5.1,0,1,1-5.1-5.09A5.1,5.1,0,0,1,294.65,212.47Z"/><path d="M245.76,212.47a5.1,5.1,0,1,1-5.1-5.09A5.1,5.1,0,0,1,245.76,212.47Z"/><path d="M253,236.88a.77.77,0,0,0,0,.21c0,4.74,5.51,8.52,12.32,8.52s12.32-3.74,12.32-8.49a1.17,1.17,0,0,0,0-.24Z"/><path class="cls-9" d="M342.13,362.73H189.58c.41,32.9.77,71,.83,105.2,0,0,145.1,2.57,151.14,2.57C341,464.09,341.74,411.31,342.13,362.73Z"/><line class="cls-11" x1="211" y1="395.31" x2="261.13" y2="395.31"/><line class="cls-11" x1="211" y1="410.35" x2="318.78" y2="410.35"/><line class="cls-11" x1="211" y1="425.39" x2="318.78" y2="425.39"/><line class="cls-11" x1="211" y1="440.42" x2="318.78" y2="440.42"/></svg>